<?xml version="1.0" encoding="UTF-8"?>
<!DOCTYPE svg PUBLIC "-//W3C//DTD SVG 1.1//EN" "http://www.w3.org/Graphics/SVG/1.1/DTD/svg11.dtd">
<svg xmlns="http://www.w3.org/2000/svg" version="1.1" width="40px" height="60px" style="shape-rendering:geometricPrecision; text-rendering:geometricPrecision; image-rendering:optimizeQuality; fill-rule:evenodd; clip-rule:evenodd" xmlns:xlink="http://www.w3.org/1999/xlink">
<g><path style="opacity:0.57" fill="#fefffe" d="M 8.5,9.5 C 16.0871,9.18583 23.5871,9.51916 31,10.5C 31.6667,20.1667 31.6667,29.8333 31,39.5C 28.9838,40.9552 28.1505,42.9552 28.5,45.5C 27.5,45.5 26.5,45.5 25.5,45.5C 25.5,47.1667 25.5,48.8333 25.5,50.5C 24.5,50.5 23.5,50.5 22.5,50.5C 22.1667,43.8333 21.8333,43.8333 21.5,50.5C 18.234,50.5674 16.734,48.9008 17,45.5C 16.5065,47.1341 16.3398,48.8008 16.5,50.5C 15.5,50.5 14.5,50.5 13.5,50.5C 13.5,48.8333 13.5,47.1667 13.5,45.5C 12.5,45.5 11.5,45.5 10.5,45.5C 10.8495,42.9552 10.0162,40.9552 8,39.5C 7.19338,29.4229 7.36005,19.4229 8.5,9.5 Z M 10.5,22.5 C 16.5,22.5 22.5,22.5 28.5,22.5C 28.5,24.5 28.5,26.5 28.5,28.5C 23.8575,29.5836 20.8575,27.9169 19.5,23.5C 18.3764,25.3686 17.5431,27.3686 17,29.5C 14.9592,28.5769 12.7925,28.2436 10.5,28.5C 10.5,26.5 10.5,24.5 10.5,22.5 Z M 10.5,30.5 C 15.1425,29.4164 18.1425,31.0831 19.5,35.5C 20.942,31.3027 23.942,29.636 28.5,30.5C 28.5,32.5 28.5,34.5 28.5,36.5C 22.5,36.5 16.5,36.5 10.5,36.5C 10.5,34.5 10.5,32.5 10.5,30.5 Z M 12.5,40.5 C 17.1667,40.5 21.8333,40.5 26.5,40.5C 26.5,41.5 26.5,42.5 26.5,43.5C 21.8333,43.5 17.1667,43.5 12.5,43.5C 12.5,42.5 12.5,41.5 12.5,40.5 Z"/></g>
</svg>
