<?xml version="1.0" encoding="UTF-8"?>
<!DOCTYPE svg PUBLIC "-//W3C//DTD SVG 1.1//EN" "http://www.w3.org/Graphics/SVG/1.1/DTD/svg11.dtd">
<svg xmlns="http://www.w3.org/2000/svg" version="1.1" width="40px" height="60px" style="shape-rendering:geometricPrecision; text-rendering:geometricPrecision; image-rendering:optimizeQuality; fill-rule:evenodd; clip-rule:evenodd" xmlns:xlink="http://www.w3.org/1999/xlink">
<g><path style="opacity:0.74" fill="#fefffe" d="M 7.5,9.5 C 14.5,9.5 21.5,9.5 28.5,9.5C 28.5,12.8333 28.5,16.1667 28.5,19.5C 27.5,19.5 26.5,19.5 25.5,19.5C 25.5,17.8333 25.5,16.1667 25.5,14.5C 20.5,14.5 15.5,14.5 10.5,14.5C 10.5,24.5 10.5,34.5 10.5,44.5C 13.1873,44.6641 15.854,44.4974 18.5,44C 16.855,38.6398 15.6883,33.1398 15,27.5C 14.2291,30.1897 13.3958,32.8564 12.5,35.5C 11.2271,31.4499 11.3938,27.4499 13,23.5C 14.7141,22.0745 16.0475,22.4078 17,24.5C 17.9081,29.1929 18.9081,33.8596 20,38.5C 21.1482,34.5472 21.9816,30.5472 22.5,26.5C 23.5,26.5 24.5,26.5 25.5,26.5C 25.281,25.325 25.6143,24.325 26.5,23.5C 34.5,27.1667 34.5,30.8333 26.5,34.5C 25.8333,33.5 25.1667,32.5 24.5,31.5C 23.7236,35.9255 22.3903,40.0922 20.5,44C 22.1341,44.4935 23.8008,44.6602 25.5,44.5C 25.5,42.5 25.5,40.5 25.5,38.5C 26.5,38.5 27.5,38.5 28.5,38.5C 28.5,42.1667 28.5,45.8333 28.5,49.5C 21.5,49.5 14.5,49.5 7.5,49.5C 7.5,36.1667 7.5,22.8333 7.5,9.5 Z"/></g>
</svg>
