<?xml version="1.0" encoding="UTF-8"?>
<!DOCTYPE svg PUBLIC "-//W3C//DTD SVG 1.1//EN" "http://www.w3.org/Graphics/SVG/1.1/DTD/svg11.dtd">
<svg xmlns="http://www.w3.org/2000/svg" version="1.1" width="40px" height="60px" style="shape-rendering:geometricPrecision; text-rendering:geometricPrecision; image-rendering:optimizeQuality; fill-rule:evenodd; clip-rule:evenodd" xmlns:xlink="http://www.w3.org/1999/xlink">
<g><path style="opacity:0.732" fill="#fefffe" d="M 11.5,9.5 C 18.8333,9.5 26.1667,9.5 33.5,9.5C 33.6666,22.5043 33.4999,35.5043 33,48.5C 25.9213,49.4799 18.7546,49.8132 11.5,49.5C 11.5,45.8333 11.5,42.1667 11.5,38.5C 12.5,38.5 13.5,38.5 14.5,38.5C 14.5,40.5 14.5,42.5 14.5,44.5C 19.5,44.5 24.5,44.5 29.5,44.5C 29.5,34.5 29.5,24.5 29.5,14.5C 24.5,14.5 19.5,14.5 14.5,14.5C 14.5,16.5 14.5,18.5 14.5,20.5C 13.5,20.5 12.5,20.5 11.5,20.5C 11.5,16.8333 11.5,13.1667 11.5,9.5 Z"/></g>
<g><path style="opacity:0.696" fill="#fefffe" d="M 10.5,23.5 C 13.5031,25.0068 16.1698,27.0068 18.5,29.5C 16.3932,31.7267 14.0599,33.7267 11.5,35.5C 10.6143,34.675 10.281,33.675 10.5,32.5C 9.16667,32.5 7.83333,32.5 6.5,32.5C 6.5,30.5 6.5,28.5 6.5,26.5C 7.83333,26.5 9.16667,26.5 10.5,26.5C 10.5,25.5 10.5,24.5 10.5,23.5 Z"/></g>
<g><path style="opacity:0.591" fill="#fefffe" d="M 19.5,28.5 C 21.5,28.5 23.5,28.5 25.5,28.5C 25.5,32.1667 25.5,35.8333 25.5,39.5C 26.5,39.5 27.5,39.5 28.5,39.5C 28.5,40.8333 28.5,42.1667 28.5,43.5C 26.5,43.5 24.5,43.5 22.5,43.5C 22.1667,28.8333 21.8333,28.8333 21.5,43.5C 17.7593,44.4015 15.7593,43.0681 15.5,39.5C 16.8333,39.5 18.1667,39.5 19.5,39.5C 19.5,35.8333 19.5,32.1667 19.5,28.5 Z"/></g>
</svg>
