<?xml version="1.0" encoding="UTF-8"?>
<!DOCTYPE svg PUBLIC "-//W3C//DTD SVG 1.1//EN" "http://www.w3.org/Graphics/SVG/1.1/DTD/svg11.dtd">
<svg xmlns="http://www.w3.org/2000/svg" version="1.1" width="40px" height="60px" style="shape-rendering:geometricPrecision; text-rendering:geometricPrecision; image-rendering:optimizeQuality; fill-rule:evenodd; clip-rule:evenodd" xmlns:xlink="http://www.w3.org/1999/xlink">
<g><path style="opacity:0.696" fill="#fefffe" d="M 11.5,9.5 C 18.8333,9.5 26.1667,9.5 33.5,9.5C 33.6666,22.5043 33.4999,35.5043 33,48.5C 25.9213,49.4799 18.7546,49.8132 11.5,49.5C 11.5,45.8333 11.5,42.1667 11.5,38.5C 12.5,38.5 13.5,38.5 14.5,38.5C 14.5,40.5 14.5,42.5 14.5,44.5C 19.5,44.5 24.5,44.5 29.5,44.5C 29.6602,42.8008 29.4935,41.1341 29,39.5C 28.8176,42.8815 27.3176,43.8815 24.5,42.5C 23.3338,37.5045 22.1671,32.5045 21,27.5C 20.8485,30.1193 20.0152,32.4527 18.5,34.5C 17.7492,33.624 17.2492,32.624 17,31.5C 15.0266,32.6399 13.1933,33.9733 11.5,35.5C 10.6143,34.675 10.281,33.675 10.5,32.5C 9.16667,32.5 7.83333,32.5 6.5,32.5C 6.5,30.5 6.5,28.5 6.5,26.5C 7.83333,26.5 9.16667,26.5 10.5,26.5C 10.281,25.325 10.6143,24.325 11.5,23.5C 13.5765,25.2877 15.7432,26.9544 18,28.5C 18.3333,26.8333 18.6667,25.1667 19,23.5C 19.8373,21.9926 21.0039,21.4926 22.5,22C 24.2179,27.3375 25.3846,32.8375 26,38.5C 28.802,30.7533 29.9686,22.7533 29.5,14.5C 24.5,14.5 19.5,14.5 14.5,14.5C 14.5,16.5 14.5,18.5 14.5,20.5C 13.5,20.5 12.5,20.5 11.5,20.5C 11.5,16.8333 11.5,13.1667 11.5,9.5 Z"/></g>
</svg>
