<?xml version="1.0" encoding="UTF-8"?>
<!DOCTYPE svg PUBLIC "-//W3C//DTD SVG 1.1//EN" "http://www.w3.org/Graphics/SVG/1.1/DTD/svg11.dtd">
<svg xmlns="http://www.w3.org/2000/svg" version="1.1" width="40px" height="60px" style="shape-rendering:geometricPrecision; text-rendering:geometricPrecision; image-rendering:optimizeQuality; fill-rule:evenodd; clip-rule:evenodd" xmlns:xlink="http://www.w3.org/1999/xlink">
<g><path style="opacity:0.806" fill="#fefffe" d="M 7.5,9.5 C 14.5,9.5 21.5,9.5 28.5,9.5C 28.5,12.8333 28.5,16.1667 28.5,19.5C 27.5,19.5 26.5,19.5 25.5,19.5C 25.5,17.8333 25.5,16.1667 25.5,14.5C 20.5,14.5 15.5,14.5 10.5,14.5C 10.5,24.5 10.5,34.5 10.5,44.5C 15.5,44.5 20.5,44.5 25.5,44.5C 25.5,42.5 25.5,40.5 25.5,38.5C 26.5,38.5 27.5,38.5 28.5,38.5C 28.5,42.1667 28.5,45.8333 28.5,49.5C 21.5,49.5 14.5,49.5 7.5,49.5C 7.5,36.1667 7.5,22.8333 7.5,9.5 Z"/></g>
<g><path style="opacity:0.73" fill="#fefffe" d="M 25.5,23.5 C 34.1948,26.6497 34.5281,30.3164 26.5,34.5C 25.6143,33.675 25.281,32.675 25.5,31.5C 24.5,31.5 23.5,31.5 22.5,31.5C 22.5,29.8333 22.5,28.1667 22.5,26.5C 23.5,26.5 24.5,26.5 25.5,26.5C 25.5,25.5 25.5,24.5 25.5,23.5 Z"/></g>
<g><path style="opacity:0.614" fill="#fefffe" d="M 15.5,29.5 C 17.5,29.5 19.5,29.5 21.5,29.5C 21.5,32.8333 21.5,36.1667 21.5,39.5C 22.5,39.5 23.5,39.5 24.5,39.5C 24.5,40.8333 24.5,42.1667 24.5,43.5C 22.5,43.5 20.5,43.5 18.5,43.5C 18.1667,30.1667 17.8333,30.1667 17.5,43.5C 15.5,43.5 13.5,43.5 11.5,43.5C 11.5,42.1667 11.5,40.8333 11.5,39.5C 12.8333,39.5 14.1667,39.5 15.5,39.5C 15.5,36.1667 15.5,32.8333 15.5,29.5 Z"/></g>
</svg>
